#!OML:ASF F:\VICON\USERDATA\INSTALL\rory3\rory3.ASF
:FULLY-SPECIFIED
:DEGREES
94
root -0.16144399540085907 17.625761360850092 37.94624268822291 0.08505278121134463 -3.620988591825024 -7.074657885141837
lfemur -23.852251217556997 -7.008827601219014 -8.97951454104143
ltibia 7.832973720204308
lfoot -10.290703440845789 -0.5400855618586557
ltoes -12.958963786799698
rfemur 0.6916425964714517 8.621668947615184 34.44492091119914
rtibia 24.803395054196187
rfoot -3.8518418744974614 -6.280408691425905
rtoes 6.506179799211312
lowerback 8.1554142203187 2.0776832133913854 5.552736918024314
upperback -0.039954089773803964 3.435532226276265 1.7452568349620852
thorax -5.157436590278855 1.5778609150542875 -2.305160920681784
lowerneck -15.42977598013138 -3.0671663193786145 -2.0595324108658133
upperneck 21.968369618874764 -3.8425944105528256 0.35723355498124565
head 9.446816999568412 -1.8397961232469573 -0.029657566727836815
lclavicle -1.3887633479435076e-15 -1.8452409566485937e-15
lhumerus -33.97891994043047 3.7732374554479704 80.93282999734696
lradius 31.4544180537766
lwrist 6.1741928547426035
lhand -27.096086576689608 23.184800907460733
lfingers 7.125019999999999
lthumb -0.2748960737712989 53.198978620549426
rclavicle -1.3847562075562804e-15 -1.841215568266637e-15
rhumerus -25.828839000097112 -17.690434529343 -78.23776033505537
rradius 26.267861283796115
rwrist -0.14700271828643618
rhand -19.232117299280368 23.977957693431602
rfingers 7.125019999999999
rthumb 7.06174098918193 -5.912068210096219
95
root -0.10945433785778136 17.53170451801643 38.53071577529071 0.1741279152119386 -3.831561382160009 -7.259935061854939
lfemur -23.56539084620426 -6.511257660268731 -9.469027283635501
ltibia 8.292638593276525
lfoot -11.29443548176165 -1.261350039341777
ltoes -12.48227431590576
rfemur 3.3602602466833584 8.49718314774099 34.4730727144645
rtibia 25.04495145944975
rfoot -4.079961956537388 -6.079559711058955
rtoes 7.223755364086106
lowerback 8.314631080349697 2.115651941328564 5.719465813289002
upperback -0.021584694301698043 3.543434800836923 1.6267676011074488
thorax -5.10759905080398 1.621912260151463 -2.3472420333788797
lowerneck -15.465737069630231 -3.101242466343882 -1.9639840670920639
upperneck 21.94174715192245 -3.949855102433039 0.3768310602970933
head 9.429598084260013 -1.875053653595358 -0.08016579633818682
lclavicle -1.386776652029539e-15 -1.843769093842457e-15
lhumerus -33.59418129698731 4.018218114622864 80.85234071818859
lradius 31.49430645671783
lwrist 5.991691488569613
lhand -26.959947036109583 23.175484371020726
lfingers 7.125019999999999
lthumb -0.23090600124036953 53.05991544185555
rclavicle -1.3856529596028178e-15 -1.842048844037154e-15
rhumerus -26.28362656934492 -18.14589735683171 -77.97669207006521
rradius 26.38291631242999
rwrist -0.041805021449997426
rhand -19.230289417093783 24.08942917451769
rfingers 7.125019999999999
rthumb 7.095265847000204 -5.76706263318842
96
root -0.03760699511469945 17.47622850193881 39.059072091180376 -0.20581791888417866 -3.5521114095413475 -6.557480061374482
lfemur -24.34077838118514 -4.868252608723466 -11.64685918415185
ltibia 13.732661243011869
lfoot -10.98970061637974 -2.633512024150486
ltoes -12.209888573933465
rfemur 5.545948804179014 7.738564202785684 33.65829239859409
rtibia 26.993647550253986
rfoot -4.0978724205347525 -5.995290621225877
rtoes 8.229914863694678
lowerback 8.300983382902217 2.0674409392975552 5.326739999311273
upperback 0.021074856862302566 3.4161152370619536 1.4690769078135288
thorax -5.05652283753602 1.5659917563812333 -2.224710106609405
lowerneck -15.40521876854497 -3.1504853397731623 -1.9014804310048459
upperneck 21.99599360093644 -4.081229830198909 0.4135097223528958
head 9.426103672562155 -1.9241157371438395 -0.12151232816392432
lclavicle -1.3865923770735251e-15 -1.8431477380012746e-15
lhumerus -33.30629972350812 4.133899409769946 80.84118492980284
lradius 31.620638011116412
lwrist 5.933366762463802
lhand -26.887972227145347 23.119597268136747
lfingers 7.125019999999999
lthumb -0.22135821540202216 52.921351248833126
rclavicle -1.385836729466532e-15 -1.842219392371668e-15
rhumerus -27.022373310222832 -18.83285089716701 -77.5496487153162
rradius 26.26601120090884
rwrist 0.2589761094280716
rhand -19.18659089237439 24.069030661118678
rfingers 7.125019999999999
rthumb 7.145057636250409 -5.7927602361075134
97
root 0.03923953559116056 17.487949741639202 39.74261265006442 -0.9451349971745198 -3.575545919770855 -5.901891900825319
lfemur -24.89087533830732 -4.641683160630921 -13.230326350894911
ltibia 19.144196587415962
lfoot -8.32780260764271 -3.9972133125954086
ltoes -12.060769948945733
rfemur 7.0115726167396435 7.048571939340654 32.52559429473146
rtibia 30.12338999463825
rfoot -3.643674104679774 -5.822672556916752
rtoes 9.308527973870804
lowerback 8.443389392876465 2.105560738840049 4.870663089157507
upperback 0.05147324062125119 3.3843903950743317 1.2959740703737244
thorax -5.01997787459179 1.5728920692360322 -2.041595336436057
lowerneck -15.256137403493133 -3.190432034272771 -1.8535151161680092
upperneck 22.046247261337495 -4.189690458080886 0.4271776165949697
head 9.421541031069271 -1.968601736366829 -0.1604951563376721
lclavicle -1.386779889514203e-15 -1.8430919063909122e-15
lhumerus -32.99440729175984 4.206377346807015 80.84270368621875
lradius 31.788406908391547
lwrist 6.0078214449834455
lhand -26.88884735526074 23.02691350573766
lfingers 7.125019999999999
lthumb -0.2683060199019147 52.79099164928565
rclavicle -1.3847477307541128e-15 -1.84120692605398e-15
rhumerus -27.9434804145402 -19.723605314773295 -77.21010010429532
rradius 26.024366375835235
rwrist 0.6212951404707852
rhand -19.08559069933448 23.934934910839328
rfingers 7.125019999999999
rthumb 7.22943657418068 -5.948791875870657
98
root 0.10980472004646297 17.547895609153496 40.784775213575 -1.7744185316178522 -2.4875501071117423 -4.072101984554931
lfemur -23.93277653383937 -4.255718662500641 -16.010612359831917
ltibia 22.42380431064001
lfoot -6.461740105753654 -4.760730663264299
ltoes -12.482523982340473
rfemur 5.939697621966905 5.256629366956782 29.46482830771216
rtibia 36.471284087142486
rfoot -2.7241279919910557 -5.5140744053187385
rtoes 10.268563702934863
lowerback 8.176558191329914 1.9033762255294615 3.323924930657212
upperback 0.09968543287374748 2.9678202230921444 0.9133059618447623
thorax -4.997533473938727 1.4077665157182173 -1.6080281400959235
lowerneck -15.155042752460943 -3.2045738248171336 -1.8531666978541712
upperneck 22.073779426175264 -4.237305369281489 0.433988262615873
head 9.427843041510203 -1.9893290181411813 -0.18633005035068873
lclavicle -1.3831470248966982e-15 -1.84028721320618e-15
lhumerus -32.68343551939488 4.109169128565504 80.84043042517895
lradius 31.99757172029091
lwrist 5.989794520327171
lhand -26.91051831550573 23.005599628748865
lfingers 7.125019999999999
lthumb -0.29611764133912577 52.800596592955564
rclavicle -1.3849774483023687e-15 -1.8414202989156608e-15
rhumerus -28.759608640950265 -20.603910240402293 -76.9665639426347
rradius 25.558275540953183
rwrist 1.0689285252024945
rhand -18.90780355720057 23.71320720213563
rfingers 7.125019999999999
rthumb 7.37496080054568 -6.206537661960199
99
root 0.2041370793906866 17.591819876305188 42.01139273828276 -2.3957730677618447 -2.231676346366341 -3.4887126965615542
lfemur -22.45565373319173 -3.057421951649851 -17.63937689096431
ltibia 25.41452091559302
lfoot -5.18963378579136 -6.169542051768607
ltoes -13.399599742659708
rfemur 2.7686688025577926 3.905858910800697 27.42142076082997
rtibia 44.66624730522763
rfoot -0.5688232738659345 -5.134289311183309
rtoes 10.983965825331797
lowerback 8.277409980885517 1.8559213562693981 2.8112426798270533
upperback -0.056111930804379734 2.790928954179011 0.7481486207090808
thorax -5.319583511373512 1.3242241151700669 -1.3289933377240548
lowerneck -15.053086866490975 -3.1917948672889263 -1.8821047367402286
upperneck 22.023444630999606 -4.215648624568097 0.39734084441886725
head 9.415401179930129 -1.9834301594335617 -0.21313288485994697
lclavicle -1.3867391681082247e-15 -1.8425492445133557e-15
lhumerus -32.2905599184138 3.9389423310154474 80.85166948462309
lradius 32.12545561491556
lwrist 6.002416974755109
lhand -26.97723793265276 23.02175670140523
lfingers 7.125019999999999
lthumb -0.318560718026897 52.91791600269139
rclavicle -1.3856139488376357e-15 -1.8420118082517065e-15
rhumerus -29.42214713361314 -21.45080388718591 -76.68678054926242
rradius 24.872743040514088
rwrist 1.7286375452685938
rhand -18.667178825952764 23.406102874710573
rfingers 7.125019999999999
rthumb 7.557650579496729 -6.586841057496094
